<svg xmlns="http://www.w3.org/2000/svg" viewBox="0 0 1349 381" width="1349" height="381">
  <path fill="#000000" fill-rule="evenodd" d="M 643.64,255.93 L 1075.03,255.93 L 1103.11,227.09 L 698.83,227.09 L 686.77,237.05 L 675.22,244.18 L 663.08,249.61 L 643.64,255.93 Z M 691.53,227.09 L 644.69,227.09 C 643.43,228.52 639.81,233.02 637.16,235.71 C 634.52,238.40 631.31,241.20 628.82,243.22 C 626.34,245.24 623.36,247.06 622.27,247.82 L 607.60,255.93 L 633.66,253.10 L 646.85,250.35 L 658.76,246.78 L 677.98,237.94 C 679.32,237.02 683.76,234.25 686.02,232.44 C 688.28,230.63 690.62,227.98 691.53,227.09 Z M 600.22,252.80 C 600.40,252.85 599.60,253.63 601.27,253.10 C 602.93,252.57 608.71,250.19 610.20,249.61 L 621.82,243.14 L 631.80,235.19 L 638.58,227.01 L 600.60,227.01 L 600.22,252.80 Z M 557.62,227.09 C 558.87,228.55 562.35,233.18 565.14,235.86 C 567.94,238.53 572.84,241.93 574.38,243.14 L 585.85,249.53 L 595.90,252.95 L 595.90,227.09 L 557.62,227.09 Z M 504.74,227.01 C 505.67,227.93 507.84,230.56 510.33,232.51 C 512.81,234.47 518.08,237.72 519.64,238.76 L 537.44,246.78 L 549.35,250.35 L 562.54,253.10 L 588.60,255.93 L 576.91,249.61 C 575.37,248.58 570.73,245.84 567.68,243.44 C 564.62,241.04 561.28,237.94 558.59,235.19 C 555.90,232.44 552.69,228.31 551.51,226.94 L 504.74,227.01 Z M 647.52,222.33 L 696.08,222.33 C 696.85,221.33 699.33,218.49 700.70,216.31 C 702.06,214.13 703.23,211.88 704.27,209.25 C 705.31,206.62 706.37,203.40 706.95,200.55 C 707.53,197.70 707.63,193.56 707.77,192.16 L 656.60,192.16 L 653.48,208.51 L 647.52,222.33 Z M 600.37,192.16 L 600.37,222.55 L 641.19,222.55 L 642.60,222.03 C 643.33,220.67 645.80,216.48 647.00,213.86 C 648.19,211.23 648.99,208.94 649.75,206.28 C 650.51,203.61 651.24,200.26 651.54,197.88 C 651.84,195.50 651.54,192.99 651.54,192.01 L 600.37,192.16 Z M 544.44,192.23 C 544.50,193.31 544.35,195.97 544.81,198.70 C 545.27,201.42 546.32,205.76 547.19,208.58 C 548.06,211.41 548.86,213.31 550.02,215.64 C 551.19,217.97 553.50,221.40 554.19,222.55 L 595.83,222.55 L 595.83,192.08 L 544.44,192.23 Z M 488.43,192.23 C 488.57,193.60 488.68,197.68 489.25,200.48 C 489.82,203.28 490.83,206.41 491.86,209.03 C 492.89,211.64 494.05,213.91 495.43,216.16 C 496.81,218.42 499.34,221.49 500.12,222.55 L 548.68,222.55 L 542.80,208.73 L 539.60,191.93 L 488.43,192.23 Z M 1049.78,161.24 L 1036.30,218.32 L 1055.44,218.32 L 1060.28,199.29 C 1060.60,199.15 1060.13,198.61 1062.22,198.47 C 1064.30,198.34 1070.41,198.03 1072.79,198.47 C 1075.18,198.92 1075.90,200.70 1076.52,201.15 C 1076.65,201.69 1077.35,201.94 1077.34,204.42 C 1077.32,206.90 1076.41,213.66 1076.44,216.01 C 1076.48,218.37 1077.37,218.12 1077.56,218.54 L 1095.81,218.54 L 1094.91,198.25 C 1094.64,197.69 1094.19,195.92 1093.28,194.91 C 1092.36,193.89 1090.05,192.61 1089.40,192.16 C 1090.40,191.78 1093.82,190.66 1095.36,189.93 C 1096.90,189.19 1097.53,188.79 1098.64,187.77 C 1099.74,186.75 1101.11,185.16 1101.99,183.83 C 1102.87,182.51 1103.60,181.79 1103.93,179.82 C 1104.25,177.85 1104.40,174.18 1103.93,172.01 C 1103.45,169.85 1102.34,168.27 1101.10,166.81 C 1099.85,165.35 1098.29,164.14 1096.48,163.24 C 1094.67,162.35 1091.26,161.76 1090.22,161.46 L 1049.78,161.24 Z M 1063.63,185.54 C 1063.99,183.94 1065.27,177.75 1065.79,175.95 C 1066.31,174.16 1066.60,174.96 1066.76,174.76 L 1079.35,174.76 C 1079.76,174.95 1081.12,175.38 1081.81,175.88 C 1082.49,176.37 1083.17,177.43 1083.44,177.74 L 1083.29,182.20 C 1082.62,182.74 1080.68,184.78 1079.27,185.47 C 1077.87,186.15 1077.30,186.15 1074.88,186.28 C 1072.46,186.42 1066.62,186.41 1064.75,186.28 C 1062.88,186.16 1063.82,185.66 1063.63,185.54 Z M 987.51,161.24 L 973.88,218.24 L 1028.03,218.24 L 1031.46,205.39 L 1031.08,203.97 L 998.24,203.97 L 997.49,203.38 L 998.69,197.43 L 1000.10,196.61 L 1030.12,196.61 L 1033.10,183.09 L 1003.16,183.09 L 1002.34,181.97 C 1002.57,181.07 1003.35,177.60 1003.75,176.55 C 1004.15,175.49 1004.56,175.80 1004.72,175.66 L 1037.34,175.66 L 1040.77,161.39 L 987.51,161.24 Z M 979.40,161.16 L 923.76,161.16 L 920.56,175.36 L 937.02,175.36 L 938.21,176.32 L 928.97,215.49 L 928.90,218.47 L 948.34,218.47 L 958.39,176.10 L 976.34,176.10 L 979.62,162.95 L 979.40,161.16 Z M 884.44,161.24 L 871.03,218.39 L 919.44,218.39 L 922.57,204.12 L 895.46,204.12 L 894.56,203.38 L 903.87,161.39 L 884.44,161.24 Z M 855.31,161.24 L 836.62,161.24 L 835.20,162.05 L 798.86,218.47 L 818.37,218.47 C 819.20,217.20 822.31,212.24 823.36,210.89 C 824.42,209.53 824.48,210.45 824.70,210.36 L 844.37,210.36 C 844.49,210.51 844.85,210.01 845.11,211.26 C 845.37,212.51 845.79,216.77 845.93,217.87 L 847.05,218.61 L 865.44,218.61 L 855.31,161.24 Z M 841.09,181.60 L 843.32,197.66 L 831.78,197.66 L 831.48,196.99 L 841.09,181.60 Z M 735.63,218.17 L 754.92,218.17 L 768.84,190.07 L 768.84,218.17 L 788.73,218.17 L 819.34,161.24 L 799.53,161.24 L 784.48,193.42 L 783.81,192.45 L 783.81,161.24 L 766.46,161.24 L 750.89,193.20 L 750.89,161.46 L 731.23,161.46 L 735.63,218.17 Z M 389.45,218.09 L 408.96,218.09 L 422.66,189.93 L 422.66,218.17 L 442.55,218.17 L 473.31,161.31 L 453.72,161.31 L 438.16,193.20 L 438.16,161.53 L 420.73,161.53 L 404.79,193.49 L 404.79,161.53 L 384.98,161.53 L 389.45,218.09 Z M 316.38,161.24 L 302.83,218.17 L 322.42,218.17 L 326.59,201.89 L 333.36,196.69 L 345.58,218.47 L 367.40,218.47 L 349.45,184.95 L 379.17,161.24 L 354.29,161.24 L 332.32,179.67 L 331.87,178.85 L 335.90,161.46 L 316.38,161.24 Z M 259.85,161.16 L 246.00,218.54 L 294.71,218.54 L 298.21,204.86 L 297.76,204.05 L 270.73,204.05 L 269.83,203.30 L 279.22,161.46 L 259.85,161.16 Z M 647.44,157.37 L 653.48,171.12 L 656.68,187.70 L 707.77,187.70 C 707.63,186.26 707.53,181.96 706.95,179.07 C 706.37,176.19 705.30,172.98 704.27,170.38 C 703.24,167.78 702.17,165.70 700.77,163.47 C 699.37,161.24 696.67,158.08 695.85,157.00 L 647.44,157.37 Z M 600.30,157.30 L 600.30,187.55 L 651.69,187.55 C 651.66,186.58 652.00,184.55 651.54,181.75 C 651.08,178.95 649.83,173.71 648.93,170.75 C 648.04,167.79 647.31,166.25 646.18,163.99 C 645.05,161.72 642.83,158.29 642.15,157.15 L 600.30,157.30 Z M 553.60,157.59 C 552.85,158.99 550.32,163.35 549.13,165.99 C 547.94,168.63 547.19,170.79 546.45,173.43 C 545.70,176.06 544.96,179.47 544.66,181.82 C 544.36,184.18 544.66,186.59 544.66,187.55 L 595.90,187.55 L 595.90,157.15 L 555.01,157.15 L 553.60,157.59 Z M 488.43,187.25 L 489.32,187.77 L 539.52,187.77 L 542.73,171.20 L 548.76,157.37 L 500.35,157.37 C 499.55,158.35 496.99,161.04 495.58,163.24 C 494.16,165.45 492.91,167.95 491.86,170.60 C 490.80,173.25 489.82,176.37 489.25,179.15 C 488.68,181.92 488.57,185.90 488.43,187.25 Z M 600.22,126.97 L 600.22,152.54 L 638.43,152.54 C 638.39,152.35 639.35,152.80 638.21,151.43 C 637.07,150.05 634.22,146.72 631.58,144.29 C 628.93,141.86 623.88,138.10 622.34,136.86 L 611.02,130.39 C 609.50,129.78 603.66,127.32 601.86,126.75 C 600.06,126.18 600.50,126.94 600.22,126.97 Z M 595.90,126.82 C 595.61,126.82 595.93,126.22 594.12,126.82 C 592.30,127.43 586.54,129.86 585.03,130.47 L 573.86,136.86 C 572.29,138.12 567.15,141.84 564.47,144.44 C 561.79,147.04 558.89,151.13 557.77,152.47 L 595.75,152.47 L 595.90,126.82 Z M 607.52,124.00 C 609.33,124.92 614.96,127.52 618.40,129.50 C 621.83,131.48 624.99,133.45 628.15,135.89 C 631.32,138.33 634.68,141.37 637.39,144.14 C 640.09,146.92 643.22,151.14 644.39,152.54 L 691.46,152.54 C 690.40,151.54 687.55,148.43 685.13,146.52 C 682.71,144.61 679.78,142.75 676.94,141.09 C 674.09,139.43 671.39,138.03 668.07,136.56 C 664.76,135.09 658.89,132.97 657.05,132.25 L 635.23,126.82 L 614.60,124.00 L 607.52,124.00 Z M 588.68,124.00 L 581.68,124.00 L 561.42,126.75 L 539.00,132.32 C 537.19,133.03 531.39,135.11 528.13,136.56 C 524.86,138.01 522.27,139.35 519.41,141.02 C 516.56,142.69 513.43,144.69 511.00,146.59 C 508.56,148.50 505.85,151.49 504.82,152.47 L 551.81,152.47 C 553.00,151.05 556.26,146.76 558.96,143.99 C 561.67,141.23 564.88,138.32 568.05,135.89 C 571.21,133.46 574.52,131.41 577.95,129.43 C 581.39,127.44 586.89,124.90 588.68,124.00 Z M 246.89,152.39 L 497.22,152.39 L 498.63,152.32 L 508.99,142.88 L 521.80,135.00 L 537.14,128.53 L 552.41,124.00 L 274.53,124.00 L 246.89,152.39 Z"/>
</svg>
